# xmcd CD database file
#
# Track frame offsets:
#	150
#	24538
#	66696
#	93151
#	126753
#	169507
#	201639
#	236612
#	283161
#	311565
#
# Disc length: 4484 seconds
#
# Revision: 2
# Processed by: cddbd v1.4b41PL1 Copyright (c) Steve Scherf et al.
# Submitted via: Feurio! 1.50.2ß - http://www.feurio.com
#
DISCID=9311820a
DTITLE=Bryan Lee - Live At The Old Absinthe House Bar ... Saturday Night
DYEAR=1900
DGENRE=
TTITLE0=Think
TTITLE1=I´ll Play the Blues for you
TTITLE2=I got a rich Man´s Woman
TTITLE3=How many more Years
TTITLE4=Look on yonder Wall
TTITLE5=Dope smokin Blues
TTITLE6=The Things that i used to do
TTITLE7=Love her with a Feeling
TTITLE8=I´m rady
TTITLE9=Flip flop and fly
EXTD=
EXTT0=
EXTT1=
EXTT2=
EXTT3=
EXTT4=
EXTT5=
EXTT6=
EXTT7=
EXTT8=
EXTT9=
PLAYORDER=
